<?xml version="1.0" encoding="UTF-8" standalone="no"?>
<svg
   t="1682354323529"
   class="icon"
   viewBox="0 0 1024 1024"
   version="1.1"
   p-id="23758"
   width="200"
   height="200"
   id="svg4"
   sodipodi:docname="dark.svg"
   inkscape:version="1.2.2 (732a01da63, 2022-12-09)"
   xmlns:inkscape="http://www.inkscape.org/namespaces/inkscape"
   xmlns:sodipodi="http://sodipodi.sourceforge.net/DTD/sodipodi-0.dtd"
   xmlns="http://www.w3.org/2000/svg"
   xmlns:svg="http://www.w3.org/2000/svg">
  <defs
     id="defs8" />
  <sodipodi:namedview
     id="namedview6"
     pagecolor="#ffffff"
     bordercolor="#000000"
     borderopacity="0.25"
     inkscape:showpageshadow="2"
     inkscape:pageopacity="0.0"
     inkscape:pagecheckerboard="0"
     inkscape:deskcolor="#d1d1d1"
     showgrid="false"
     inkscape:zoom="4.04"
     inkscape:cx="100"
     inkscape:cy="99.876238"
     inkscape:window-width="1920"
     inkscape:window-height="991"
     inkscape:window-x="-4"
     inkscape:window-y="-4"
     inkscape:window-maximized="1"
     inkscape:current-layer="svg4" />
  <path
     d="m 622.43816,283.12372 c 0,239.24725 -203.84222,432.30691 -455.05876,435.59728 72.29266,83.84469 181.63443,134.12896 300.39752,134.12896 213.3264,0 385.07456,-160.93526 385.07456,-357.71771 0,-149.71052 -100.38539,-282.38505 -248.97419,-334.47274 12.25542,39.4627 18.56087,80.59335 18.56087,122.46421 z M 552.19927,162.01533 c -8.79706,-24.91293 -8.29419,-34.48381 0,-45.92313 0,0 26.50174,-15.51435 54.92287,-6.51137 171.63219,54.36688 295.2149,206.47798 295.2149,385.55142 0,224.85786 -194.5965,407.20432 -434.56012,407.20432 -145.38189,0 -274.00741,-66.93552 -352.86887,-169.72799 -5.66601,-7.38381 -8.52612,-16.45724 -8.0926,-25.67047 1.03284,-21.95745 20.12151,-38.94249 42.63602,-37.93457 4.07502,0.18316 7.87693,0.27419 11.40464,0.27419 227.56406,0 412.09544,-172.91539 412.09544,-386.15401 0,-42.31087 -7.30361,-83.02209 -20.75119,-121.10732 z"
     fill="#333333"
     p-id="23759"
     id="path2"
     sodipodi:nodetypes="scsscscccsscccsscc"
     style="stroke-width:0.920792;fill:#e2e2e2;fill-opacity:1" />
</svg>
